***************************************************************************

                        XxX Releasers Group

***************************************************************************

screens;
  
http://adulthub.eu/?v=bellackaru.jpeg
 
http://adulthub.eu/?v=bellacjvj.jpeg
 
http://adulthub.eu/?v=bellacaga.jpeg

Format                                   : AVI
Format/Info                              : Audio Video Interleave
File size                                : 452 MiB
Duration                                 : 20mn 2s
Overall bit rate                         : 3 157 Kbps
Writing application                      : MEncoder Sherpya-SVN-r29355-4.5.0
Writing library                          : MPlayer

Video
ID                                       : 0
Format                                   : MPEG-4 Visual
Format profile                           : Simple@L3
Format settings, BVOP                    : No
Format settings, QPel                    : No
Format settings, GMC                     : No warppoints
Format settings, Matrix                  : Default (H.263)
Codec ID                                 : XVID
Codec ID/Hint                            : XviD
Duration                                 : 20mn 2s
Bit rate                                 : 3 000 Kbps
Width                                    : 960 pixels
Height                                   : 540 pixels
Display aspect ratio                     : 16:9
Frame rate                               : 23.976 fps
Color space                              : YUV
Chroma subsampling                       : 4:2:0
Bit depth                                : 8 bits
Scan type                                : Progressive
Compression mode                         : Lossy
Bits/(Pixel*Frame)                       : 0.241
Stream size                              : 430 MiB (95%)
Writing library                          : XviD 1.2.1 (UTC 2008-12-04)

Audio
ID                                       : 1
Format                                   : MPEG Audio
Format version                           : Version 1
Format profile                           : Layer 3
Mode                                     : Joint stereo
Mode extension                           : MS Stereo
Codec ID                                 : 55
Codec ID/Hint                            : MP3
Duration                                 : 20mn 2s
Bit rate mode                            : Constant
Bit rate                                 : 32.0 Kbps
Channel(s)                               : 2 channels
Sampling rate                            : 44.1 KHz
Compression mode                         : Lossy
Stream size                              : 20.8 MiB (5%)
Alignment                                : Aligned on interleaves
Interleave, duration                     : 26 ms (0.63 video frame)
Interleave, preload duration             : 114 ms
Writing library                          : LAME3.98